<svg xmlns="http://www.w3.org/2000/svg" viewBox="0 0 97.14 110"><defs><style>.cls-1{fill:#5b91cc;}</style></defs><title>safe_network_mark</title><path class="cls-1" d="M101.572 72A7 7 0 1 0 97.6 59.24l-9.838-5.68c.015-.185.028-.37.028-.56s-.014-.375-.028-.56l9.838-5.68a7 7 0 1 0 0-11.52l-9.838-5.68c.015-.185.028-.37.028-.56a7.006 7.006 0 1 0-3.025 5.76l9.838 5.68c-.015.185-.028.37-.028.56s.014.375.028.56l-9.838 5.68a6.985 6.985 0 0 0-7.95 0l-9.837-5.68c.015-.185.028-.37.028-.56a6.992 6.992 0 0 0-4-6.317V23.317a7 7 0 1 0-6 0v11.365a7 7 0 1 0 6.975 12.076l9.84 5.68c-.016.186-.03.372-.03.56s.015.376.03.562l-9.84 5.68a6.99 6.99 0 0 0-7.95 0l-9.837-5.68c.015-.186.028-.372.028-.56a6.992 6.992 0 0 0-4-6.318V35.317a7 7 0 1 0-6 0v11.365a7.106 7.106 0 0 0-.974.558L25.4 41.56c.015-.186.028-.372.028-.56a7 7 0 1 0-10 6.316V58.68a7 7 0 1 0 6 0V47.318a7.106 7.106 0 0 0 .975-.558l9.838 5.68c-.014.185-.027.37-.027.56a6.992 6.992 0 0 0 4 6.317v11.365a6.992 6.992 0 0 0-4 6.317c0 .188.014.374.028.56l-9.837 5.68a7 7 0 1 0 3.03 5.76c0-.19-.013-.376-.027-.56l9.838-5.68a7 7 0 1 0 6.974-12.077V59.317a7.106 7.106 0 0 0 .975-.558l9.838 5.68c-.014.185-.027.37-.027.56a6.992 6.992 0 0 0 4 6.317v11.365A6.992 6.992 0 0 0 53 89c0 .19.014.376.028.56l-9.838 5.68a7 7 0 1 0 3.028 5.76c0-.19-.014-.376-.028-.56l9.838-5.68a6.952 6.952 0 0 0 .975.558v11.365A7 7 0 1 0 67 113c0-.19-.014-.376-.028-.56l9.838-5.68a7 7 0 1 0-3.022-5.76c0 .19.014.376.028.56l-9.838 5.68a6.952 6.952 0 0 0-.975-.558V95.317A6.994 6.994 0 0 0 67 89c0-.19-.014-.376-.028-.56l9.838-5.68a6.987 6.987 0 0 0 7.95 0l9.838 5.68c-.015.185-.028.37-.028.56a7.006 7.006 0 1 0 3.03-5.76l-9.838-5.68c.015-.185.028-.37.028-.56a7 7 0 0 0-14 0c0 .19.014.375.028.56l-9.838 5.68a6.952 6.952 0 0 0-.98-.558V71.317A6.994 6.994 0 0 0 67 65c0-.19-.014-.375-.028-.56l9.838-5.68a6.987 6.987 0 0 0 7.95 0l9.838 5.68c-.015.185-.028.37-.028.56a7 7 0 0 0 7.002 7z" transform="translate(-11.433 -10)"/></svg>